<mxfile host="Electron" agent="Mozilla/5.0 (Windows NT 10.0; Win64; x64) AppleWebKit/537.36 (KHTML, like Gecko) draw.io/27.0.9 Chrome/134.0.6998.205 Electron/35.4.0 Safari/537.36" version="27.0.9">
  <diagram name="第 1 页" id="52phZm96PYnnQLNfa4sI">
    <mxGraphModel dx="2431" dy="1413" grid="1" gridSize="10" guides="1" tooltips="1" connect="1" arrows="1" fold="1" page="1" pageScale="1" pageWidth="1169" pageHeight="1654" math="0" shadow="0">
      <root>
        <mxCell id="0" />
        <mxCell id="1" parent="0" />
        <mxCell id="DEj-dxudD83XBCTMd9A4-3" value="" style="rounded=0;whiteSpace=wrap;html=1;fillColor=#f5f5f5;fontColor=#333333;strokeColor=none;" vertex="1" parent="1">
          <mxGeometry x="70" y="20" width="1570" height="1370" as="geometry" />
        </mxCell>
        <mxCell id="boqBojfsuFh5zOHX36aH-1" value="&lt;h2&gt;&lt;font style=&quot;font-size: 18px;&quot;&gt;1、概述&lt;/font&gt;&lt;/h2&gt;" style="rounded=1;whiteSpace=wrap;html=1;fillColor=#dae8fc;strokeColor=#6c8ebf;fontStyle=1;align=left;" parent="1" vertex="1">
          <mxGeometry x="264.3399999999999" y="207.5" width="147.33" height="40" as="geometry" />
        </mxCell>
        <mxCell id="boqBojfsuFh5zOHX36aH-2" value="&lt;span style=&quot;font-size: 16px;&quot;&gt;专门解决“一次只允许一个线程访问”而设计的，更简洁和高效&lt;/span&gt;" style="text;html=1;align=left;verticalAlign=middle;whiteSpace=wrap;rounded=0;fillColor=#dae8fc;strokeColor=#6c8ebf;dashed=1;fontSize=14;" parent="1" vertex="1">
          <mxGeometry x="439.8399999999999" y="180" width="620.33" height="40" as="geometry" />
        </mxCell>
        <mxCell id="boqBojfsuFh5zOHX36aH-3" value="&lt;h1&gt;&lt;span style=&quot;font-size: 20px;&quot;&gt;互斥锁及机制&lt;/span&gt;&lt;/h1&gt;" style="ellipse;whiteSpace=wrap;html=1;fillColor=#1ba1e2;strokeColor=#006EAF;fontColor=#ffffff;fontStyle=1" parent="1" vertex="1">
          <mxGeometry x="80" y="630" width="155.34" height="70" as="geometry" />
        </mxCell>
        <mxCell id="boqBojfsuFh5zOHX36aH-4" value="" style="shape=curlyBracket;whiteSpace=wrap;html=1;rounded=1;labelPosition=left;verticalLabelPosition=middle;align=right;verticalAlign=middle;fillColor=#f5f5f5;strokeColor=#1BA1E2;strokeWidth=2;fontColor=#333333;" parent="1" vertex="1">
          <mxGeometry x="235.34" y="230" width="29" height="870" as="geometry" />
        </mxCell>
        <mxCell id="boqBojfsuFh5zOHX36aH-5" value="&lt;h2&gt;2、相关API&lt;/h2&gt;" style="rounded=1;whiteSpace=wrap;html=1;fillColor=#f8cecc;strokeColor=#b85450;fontStyle=1;align=left;" parent="1" vertex="1">
          <mxGeometry x="264.8499999999999" y="485" width="147.33" height="40" as="geometry" />
        </mxCell>
        <mxCell id="boqBojfsuFh5zOHX36aH-6" value="" style="shape=curlyBracket;whiteSpace=wrap;html=1;rounded=1;labelPosition=left;verticalLabelPosition=middle;align=right;verticalAlign=middle;fillColor=#f8cecc;strokeColor=#b85450;strokeWidth=2;" parent="1" vertex="1">
          <mxGeometry x="409.49" y="380" width="29" height="250" as="geometry" />
        </mxCell>
        <mxCell id="boqBojfsuFh5zOHX36aH-12" value="" style="shape=table;startSize=0;container=1;collapsible=0;childLayout=tableLayout;fillColor=none;strokeColor=#b85450;" parent="1" vertex="1">
          <mxGeometry x="438.33000000000004" y="400" width="898.9599999999991" height="280" as="geometry" />
        </mxCell>
        <mxCell id="boqBojfsuFh5zOHX36aH-13" value="" style="shape=tableRow;horizontal=0;startSize=0;swimlaneHead=0;swimlaneBody=0;strokeColor=#b85450;top=0;left=0;bottom=0;right=0;collapsible=0;dropTarget=0;fillColor=#f8cecc;points=[[0,0.5],[1,0.5]];portConstraint=eastwest;" parent="boqBojfsuFh5zOHX36aH-12" vertex="1">
          <mxGeometry width="898.9599999999991" height="30" as="geometry" />
        </mxCell>
        <mxCell id="boqBojfsuFh5zOHX36aH-14" value="函数" style="shape=partialRectangle;html=1;whiteSpace=wrap;connectable=0;strokeColor=#b85450;overflow=hidden;fillColor=#f8cecc;top=0;left=0;bottom=0;right=0;pointerEvents=1;fontSize=16;fontStyle=1" parent="boqBojfsuFh5zOHX36aH-13" vertex="1">
          <mxGeometry width="342" height="30" as="geometry">
            <mxRectangle width="342" height="30" as="alternateBounds" />
          </mxGeometry>
        </mxCell>
        <mxCell id="boqBojfsuFh5zOHX36aH-15" value="参数" style="shape=partialRectangle;html=1;whiteSpace=wrap;connectable=0;strokeColor=#b85450;overflow=hidden;fillColor=#f8cecc;top=0;left=0;bottom=0;right=0;pointerEvents=1;fontSize=16;fontStyle=1" parent="boqBojfsuFh5zOHX36aH-13" vertex="1">
          <mxGeometry x="342" width="140" height="30" as="geometry">
            <mxRectangle width="140" height="30" as="alternateBounds" />
          </mxGeometry>
        </mxCell>
        <mxCell id="boqBojfsuFh5zOHX36aH-16" value="返回值" style="shape=partialRectangle;html=1;whiteSpace=wrap;connectable=0;strokeColor=#b85450;overflow=hidden;fillColor=#f8cecc;top=0;left=0;bottom=0;right=0;pointerEvents=1;fontSize=16;fontStyle=1" parent="boqBojfsuFh5zOHX36aH-13" vertex="1">
          <mxGeometry x="482" width="140" height="30" as="geometry">
            <mxRectangle width="140" height="30" as="alternateBounds" />
          </mxGeometry>
        </mxCell>
        <mxCell id="boqBojfsuFh5zOHX36aH-17" value="描述" style="shape=partialRectangle;html=1;whiteSpace=wrap;connectable=0;strokeColor=#000000;overflow=hidden;fillColor=#f8cecc;top=0;left=0;bottom=0;right=0;pointerEvents=1;fontSize=16;fontStyle=1" parent="boqBojfsuFh5zOHX36aH-13" vertex="1">
          <mxGeometry x="622" width="277" height="30" as="geometry">
            <mxRectangle width="277" height="30" as="alternateBounds" />
          </mxGeometry>
        </mxCell>
        <mxCell id="boqBojfsuFh5zOHX36aH-18" value="" style="shape=tableRow;horizontal=0;startSize=0;swimlaneHead=0;swimlaneBody=0;strokeColor=inherit;top=0;left=0;bottom=0;right=0;collapsible=0;dropTarget=0;fillColor=none;points=[[0,0.5],[1,0.5]];portConstraint=eastwest;" parent="boqBojfsuFh5zOHX36aH-12" vertex="1">
          <mxGeometry y="30" width="898.9599999999991" height="30" as="geometry" />
        </mxCell>
        <mxCell id="boqBojfsuFh5zOHX36aH-19" value="&lt;b&gt;DEFINE_MUTEX&lt;/b&gt;(name)&amp;nbsp;" style="shape=partialRectangle;html=1;whiteSpace=wrap;connectable=0;strokeColor=inherit;overflow=hidden;fillColor=none;top=0;left=0;bottom=0;right=0;pointerEvents=1;fontSize=16;align=center;" parent="boqBojfsuFh5zOHX36aH-18" vertex="1">
          <mxGeometry width="342" height="30" as="geometry">
            <mxRectangle width="342" height="30" as="alternateBounds" />
          </mxGeometry>
        </mxCell>
        <mxCell id="boqBojfsuFh5zOHX36aH-20" value="name: 互斥锁名称" style="shape=partialRectangle;html=1;whiteSpace=wrap;connectable=0;strokeColor=inherit;overflow=hidden;fillColor=none;top=0;left=0;bottom=0;right=0;pointerEvents=1;fontSize=16;" parent="boqBojfsuFh5zOHX36aH-18" vertex="1">
          <mxGeometry x="342" width="140" height="30" as="geometry">
            <mxRectangle width="140" height="30" as="alternateBounds" />
          </mxGeometry>
        </mxCell>
        <mxCell id="boqBojfsuFh5zOHX36aH-21" value="---" style="shape=partialRectangle;html=1;whiteSpace=wrap;connectable=0;strokeColor=inherit;overflow=hidden;fillColor=none;top=0;left=0;bottom=0;right=0;pointerEvents=1;fontSize=16;" parent="boqBojfsuFh5zOHX36aH-18" vertex="1">
          <mxGeometry x="482" width="140" height="30" as="geometry">
            <mxRectangle width="140" height="30" as="alternateBounds" />
          </mxGeometry>
        </mxCell>
        <mxCell id="boqBojfsuFh5zOHX36aH-22" value="&lt;b&gt;定义并初始化&lt;/b&gt;一个mutex变量" style="shape=partialRectangle;html=1;whiteSpace=wrap;connectable=0;strokeColor=inherit;overflow=hidden;fillColor=none;top=0;left=0;bottom=0;right=0;pointerEvents=1;fontSize=16;" parent="boqBojfsuFh5zOHX36aH-18" vertex="1">
          <mxGeometry x="622" width="277" height="30" as="geometry">
            <mxRectangle width="277" height="30" as="alternateBounds" />
          </mxGeometry>
        </mxCell>
        <mxCell id="boqBojfsuFh5zOHX36aH-23" value="" style="shape=tableRow;horizontal=0;startSize=0;swimlaneHead=0;swimlaneBody=0;strokeColor=inherit;top=0;left=0;bottom=0;right=0;collapsible=0;dropTarget=0;fillColor=none;points=[[0,0.5],[1,0.5]];portConstraint=eastwest;" parent="boqBojfsuFh5zOHX36aH-12" vertex="1">
          <mxGeometry y="60" width="898.9599999999991" height="30" as="geometry" />
        </mxCell>
        <mxCell id="boqBojfsuFh5zOHX36aH-24" value="&lt;b&gt;mutex_init&lt;/b&gt;(mutex lock)" style="shape=partialRectangle;html=1;whiteSpace=wrap;connectable=0;strokeColor=inherit;overflow=hidden;fillColor=none;top=0;left=0;bottom=0;right=0;pointerEvents=1;fontSize=16;align=center;" parent="boqBojfsuFh5zOHX36aH-23" vertex="1">
          <mxGeometry width="342" height="30" as="geometry">
            <mxRectangle width="342" height="30" as="alternateBounds" />
          </mxGeometry>
        </mxCell>
        <mxCell id="boqBojfsuFh5zOHX36aH-25" value="lock: 互斥锁指针" style="shape=partialRectangle;html=1;whiteSpace=wrap;connectable=0;strokeColor=inherit;overflow=hidden;fillColor=none;top=0;left=0;bottom=0;right=0;pointerEvents=1;fontSize=16;" parent="boqBojfsuFh5zOHX36aH-23" vertex="1">
          <mxGeometry x="342" width="140" height="30" as="geometry">
            <mxRectangle width="140" height="30" as="alternateBounds" />
          </mxGeometry>
        </mxCell>
        <mxCell id="boqBojfsuFh5zOHX36aH-26" value="void" style="shape=partialRectangle;html=1;whiteSpace=wrap;connectable=0;strokeColor=inherit;overflow=hidden;fillColor=none;top=0;left=0;bottom=0;right=0;pointerEvents=1;fontSize=16;" parent="boqBojfsuFh5zOHX36aH-23" vertex="1">
          <mxGeometry x="482" width="140" height="30" as="geometry">
            <mxRectangle width="140" height="30" as="alternateBounds" />
          </mxGeometry>
        </mxCell>
        <mxCell id="boqBojfsuFh5zOHX36aH-27" value="&lt;b&gt;初始化&lt;/b&gt;mutex" style="shape=partialRectangle;html=1;whiteSpace=wrap;connectable=0;strokeColor=inherit;overflow=hidden;fillColor=none;top=0;left=0;bottom=0;right=0;pointerEvents=1;fontSize=16;" parent="boqBojfsuFh5zOHX36aH-23" vertex="1">
          <mxGeometry x="622" width="277" height="30" as="geometry">
            <mxRectangle width="277" height="30" as="alternateBounds" />
          </mxGeometry>
        </mxCell>
        <mxCell id="boqBojfsuFh5zOHX36aH-28" value="" style="shape=tableRow;horizontal=0;startSize=0;swimlaneHead=0;swimlaneBody=0;strokeColor=inherit;top=0;left=0;bottom=0;right=0;collapsible=0;dropTarget=0;fillColor=none;points=[[0,0.5],[1,0.5]];portConstraint=eastwest;" parent="boqBojfsuFh5zOHX36aH-12" vertex="1">
          <mxGeometry y="90" width="898.9599999999991" height="30" as="geometry" />
        </mxCell>
        <mxCell id="boqBojfsuFh5zOHX36aH-29" value="&lt;b&gt;mutex_lock&lt;/b&gt;(struct mutex lock)" style="shape=partialRectangle;html=1;whiteSpace=wrap;connectable=0;strokeColor=inherit;overflow=hidden;fillColor=none;top=0;left=0;bottom=0;right=0;pointerEvents=1;fontSize=16;align=center;" parent="boqBojfsuFh5zOHX36aH-28" vertex="1">
          <mxGeometry width="342" height="30" as="geometry">
            <mxRectangle width="342" height="30" as="alternateBounds" />
          </mxGeometry>
        </mxCell>
        <mxCell id="boqBojfsuFh5zOHX36aH-30" value="同上" style="shape=partialRectangle;html=1;whiteSpace=wrap;connectable=0;strokeColor=inherit;overflow=hidden;fillColor=none;top=0;left=0;bottom=0;right=0;pointerEvents=1;fontSize=16;" parent="boqBojfsuFh5zOHX36aH-28" vertex="1">
          <mxGeometry x="342" width="140" height="30" as="geometry">
            <mxRectangle width="140" height="30" as="alternateBounds" />
          </mxGeometry>
        </mxCell>
        <mxCell id="boqBojfsuFh5zOHX36aH-31" value="void" style="shape=partialRectangle;html=1;whiteSpace=wrap;connectable=0;strokeColor=inherit;overflow=hidden;fillColor=none;top=0;left=0;bottom=0;right=0;pointerEvents=1;fontSize=16;" parent="boqBojfsuFh5zOHX36aH-28" vertex="1">
          <mxGeometry x="482" width="140" height="30" as="geometry">
            <mxRectangle width="140" height="30" as="alternateBounds" />
          </mxGeometry>
        </mxCell>
        <mxCell id="boqBojfsuFh5zOHX36aH-32" value="&lt;b&gt;获取mutex，如果获取不到就进入休眠&lt;/b&gt;" style="shape=partialRectangle;html=1;whiteSpace=wrap;connectable=0;strokeColor=inherit;overflow=hidden;fillColor=none;top=0;left=0;bottom=0;right=0;pointerEvents=1;fontSize=16;" parent="boqBojfsuFh5zOHX36aH-28" vertex="1">
          <mxGeometry x="622" width="277" height="30" as="geometry">
            <mxRectangle width="277" height="30" as="alternateBounds" />
          </mxGeometry>
        </mxCell>
        <mxCell id="boqBojfsuFh5zOHX36aH-33" value="" style="shape=tableRow;horizontal=0;startSize=0;swimlaneHead=0;swimlaneBody=0;strokeColor=inherit;top=0;left=0;bottom=0;right=0;collapsible=0;dropTarget=0;fillColor=none;points=[[0,0.5],[1,0.5]];portConstraint=eastwest;" parent="boqBojfsuFh5zOHX36aH-12" vertex="1">
          <mxGeometry y="120" width="898.9599999999991" height="30" as="geometry" />
        </mxCell>
        <mxCell id="boqBojfsuFh5zOHX36aH-34" value="&lt;b&gt;mutex_unlock&lt;/b&gt;(struct mutex lock)" style="shape=partialRectangle;html=1;whiteSpace=wrap;connectable=0;strokeColor=inherit;overflow=hidden;fillColor=none;top=0;left=0;bottom=0;right=0;pointerEvents=1;fontSize=16;align=center;" parent="boqBojfsuFh5zOHX36aH-33" vertex="1">
          <mxGeometry width="342" height="30" as="geometry">
            <mxRectangle width="342" height="30" as="alternateBounds" />
          </mxGeometry>
        </mxCell>
        <mxCell id="boqBojfsuFh5zOHX36aH-35" value="下面都是同上" style="shape=partialRectangle;html=1;whiteSpace=wrap;connectable=0;strokeColor=inherit;overflow=hidden;fillColor=none;top=0;left=0;bottom=0;right=0;pointerEvents=1;fontSize=16;" parent="boqBojfsuFh5zOHX36aH-33" vertex="1">
          <mxGeometry x="342" width="140" height="30" as="geometry">
            <mxRectangle width="140" height="30" as="alternateBounds" />
          </mxGeometry>
        </mxCell>
        <mxCell id="boqBojfsuFh5zOHX36aH-36" value="void" style="shape=partialRectangle;html=1;whiteSpace=wrap;connectable=0;strokeColor=inherit;overflow=hidden;fillColor=none;top=0;left=0;bottom=0;right=0;pointerEvents=1;fontSize=16;" parent="boqBojfsuFh5zOHX36aH-33" vertex="1">
          <mxGeometry x="482" width="140" height="30" as="geometry">
            <mxRectangle width="140" height="30" as="alternateBounds" />
          </mxGeometry>
        </mxCell>
        <mxCell id="boqBojfsuFh5zOHX36aH-37" value="&lt;b&gt;释放&lt;/b&gt;mutex" style="shape=partialRectangle;html=1;whiteSpace=wrap;connectable=0;strokeColor=inherit;overflow=hidden;fillColor=none;top=0;left=0;bottom=0;right=0;pointerEvents=1;fontSize=16;" parent="boqBojfsuFh5zOHX36aH-33" vertex="1">
          <mxGeometry x="622" width="277" height="30" as="geometry">
            <mxRectangle width="277" height="30" as="alternateBounds" />
          </mxGeometry>
        </mxCell>
        <mxCell id="boqBojfsuFh5zOHX36aH-38" value="" style="shape=tableRow;horizontal=0;startSize=0;swimlaneHead=0;swimlaneBody=0;strokeColor=inherit;top=0;left=0;bottom=0;right=0;collapsible=0;dropTarget=0;fillColor=none;points=[[0,0.5],[1,0.5]];portConstraint=eastwest;" parent="boqBojfsuFh5zOHX36aH-12" vertex="1">
          <mxGeometry y="150" width="898.9599999999991" height="50" as="geometry" />
        </mxCell>
        <mxCell id="boqBojfsuFh5zOHX36aH-39" value="&lt;b&gt;mutex_is_locked&lt;/b&gt;(struct mutex lock)" style="shape=partialRectangle;html=1;whiteSpace=wrap;connectable=0;strokeColor=inherit;overflow=hidden;fillColor=none;top=0;left=0;bottom=0;right=0;pointerEvents=1;fontSize=16;align=center;" parent="boqBojfsuFh5zOHX36aH-38" vertex="1">
          <mxGeometry width="342" height="50" as="geometry">
            <mxRectangle width="342" height="50" as="alternateBounds" />
          </mxGeometry>
        </mxCell>
        <mxCell id="boqBojfsuFh5zOHX36aH-40" value="" style="shape=partialRectangle;html=1;whiteSpace=wrap;connectable=0;strokeColor=inherit;overflow=hidden;fillColor=none;top=0;left=0;bottom=0;right=0;pointerEvents=1;fontSize=16;" parent="boqBojfsuFh5zOHX36aH-38" vertex="1">
          <mxGeometry x="342" width="140" height="50" as="geometry">
            <mxRectangle width="140" height="50" as="alternateBounds" />
          </mxGeometry>
        </mxCell>
        <mxCell id="boqBojfsuFh5zOHX36aH-41" value="int: &lt;br&gt;1已获取，0未获取" style="shape=partialRectangle;html=1;whiteSpace=wrap;connectable=0;strokeColor=inherit;overflow=hidden;fillColor=none;top=0;left=0;bottom=0;right=0;pointerEvents=1;fontSize=16;" parent="boqBojfsuFh5zOHX36aH-38" vertex="1">
          <mxGeometry x="482" width="140" height="50" as="geometry">
            <mxRectangle width="140" height="50" as="alternateBounds" />
          </mxGeometry>
        </mxCell>
        <mxCell id="boqBojfsuFh5zOHX36aH-42" value="&lt;b&gt;判断&lt;/b&gt;mutex&lt;b&gt;是否被获取&lt;/b&gt;" style="shape=partialRectangle;html=1;whiteSpace=wrap;connectable=0;strokeColor=inherit;overflow=hidden;fillColor=none;top=0;left=0;bottom=0;right=0;pointerEvents=1;fontSize=16;" parent="boqBojfsuFh5zOHX36aH-38" vertex="1">
          <mxGeometry x="622" width="277" height="50" as="geometry">
            <mxRectangle width="277" height="50" as="alternateBounds" />
          </mxGeometry>
        </mxCell>
        <mxCell id="boqBojfsuFh5zOHX36aH-70" value="" style="shape=tableRow;horizontal=0;startSize=0;swimlaneHead=0;swimlaneBody=0;strokeColor=inherit;top=0;left=0;bottom=0;right=0;collapsible=0;dropTarget=0;fillColor=none;points=[[0,0.5],[1,0.5]];portConstraint=eastwest;" parent="boqBojfsuFh5zOHX36aH-12" vertex="1">
          <mxGeometry y="200" width="898.9599999999991" height="30" as="geometry" />
        </mxCell>
        <mxCell id="boqBojfsuFh5zOHX36aH-71" value="&lt;b&gt;mutex_trylock&lt;/b&gt;(struct mutex lock)" style="shape=partialRectangle;html=1;whiteSpace=wrap;connectable=0;strokeColor=inherit;overflow=hidden;fillColor=none;top=0;left=0;bottom=0;right=0;pointerEvents=1;fontSize=16;align=center;" parent="boqBojfsuFh5zOHX36aH-70" vertex="1">
          <mxGeometry width="342" height="30" as="geometry">
            <mxRectangle width="342" height="30" as="alternateBounds" />
          </mxGeometry>
        </mxCell>
        <mxCell id="boqBojfsuFh5zOHX36aH-72" value="" style="shape=partialRectangle;html=1;whiteSpace=wrap;connectable=0;strokeColor=inherit;overflow=hidden;fillColor=none;top=0;left=0;bottom=0;right=0;pointerEvents=1;fontSize=16;" parent="boqBojfsuFh5zOHX36aH-70" vertex="1">
          <mxGeometry x="342" width="140" height="30" as="geometry">
            <mxRectangle width="140" height="30" as="alternateBounds" />
          </mxGeometry>
        </mxCell>
        <mxCell id="boqBojfsuFh5zOHX36aH-73" value="int: 1成功，0失败" style="shape=partialRectangle;html=1;whiteSpace=wrap;connectable=0;strokeColor=inherit;overflow=hidden;fillColor=none;top=0;left=0;bottom=0;right=0;pointerEvents=1;fontSize=16;" parent="boqBojfsuFh5zOHX36aH-70" vertex="1">
          <mxGeometry x="482" width="140" height="30" as="geometry">
            <mxRectangle width="140" height="30" as="alternateBounds" />
          </mxGeometry>
        </mxCell>
        <mxCell id="boqBojfsuFh5zOHX36aH-74" value="&lt;b&gt;获取mutex，如果获取不到就返回&lt;/b&gt;" style="shape=partialRectangle;html=1;whiteSpace=wrap;connectable=0;strokeColor=inherit;overflow=hidden;fillColor=none;top=0;left=0;bottom=0;right=0;pointerEvents=1;fontSize=16;" parent="boqBojfsuFh5zOHX36aH-70" vertex="1">
          <mxGeometry x="622" width="277" height="30" as="geometry">
            <mxRectangle width="277" height="30" as="alternateBounds" />
          </mxGeometry>
        </mxCell>
        <mxCell id="boqBojfsuFh5zOHX36aH-75" value="" style="shape=tableRow;horizontal=0;startSize=0;swimlaneHead=0;swimlaneBody=0;strokeColor=inherit;top=0;left=0;bottom=0;right=0;collapsible=0;dropTarget=0;fillColor=none;points=[[0,0.5],[1,0.5]];portConstraint=eastwest;" parent="boqBojfsuFh5zOHX36aH-12" vertex="1">
          <mxGeometry y="230" width="898.9599999999991" height="50" as="geometry" />
        </mxCell>
        <mxCell id="boqBojfsuFh5zOHX36aH-76" value="&lt;b&gt;mutex_lock_interruptible&lt;/b&gt;(struct mutex lock)" style="shape=partialRectangle;html=1;whiteSpace=wrap;connectable=0;strokeColor=inherit;overflow=hidden;fillColor=none;top=0;left=0;bottom=0;right=0;pointerEvents=1;fontSize=16;align=center;" parent="boqBojfsuFh5zOHX36aH-75" vertex="1">
          <mxGeometry width="342" height="50" as="geometry">
            <mxRectangle width="342" height="50" as="alternateBounds" />
          </mxGeometry>
        </mxCell>
        <mxCell id="boqBojfsuFh5zOHX36aH-77" value="" style="shape=partialRectangle;html=1;whiteSpace=wrap;connectable=0;strokeColor=inherit;overflow=hidden;fillColor=none;top=0;left=0;bottom=0;right=0;pointerEvents=1;fontSize=16;" parent="boqBojfsuFh5zOHX36aH-75" vertex="1">
          <mxGeometry x="342" width="140" height="50" as="geometry">
            <mxRectangle width="140" height="50" as="alternateBounds" />
          </mxGeometry>
        </mxCell>
        <mxCell id="boqBojfsuFh5zOHX36aH-78" value="int: &lt;br&gt;0成功，负数被中断" style="shape=partialRectangle;html=1;whiteSpace=wrap;connectable=0;strokeColor=inherit;overflow=hidden;fillColor=none;top=0;left=0;bottom=0;right=0;pointerEvents=1;fontSize=16;" parent="boqBojfsuFh5zOHX36aH-75" vertex="1">
          <mxGeometry x="482" width="140" height="50" as="geometry">
            <mxRectangle width="140" height="50" as="alternateBounds" />
          </mxGeometry>
        </mxCell>
        <mxCell id="boqBojfsuFh5zOHX36aH-79" value="可&lt;b&gt;中断方式获取&lt;/b&gt;mutex" style="shape=partialRectangle;html=1;whiteSpace=wrap;connectable=0;strokeColor=inherit;overflow=hidden;fillColor=none;top=0;left=0;bottom=0;right=0;pointerEvents=1;fontSize=16;" parent="boqBojfsuFh5zOHX36aH-75" vertex="1">
          <mxGeometry x="622" width="277" height="50" as="geometry">
            <mxRectangle width="277" height="50" as="alternateBounds" />
          </mxGeometry>
        </mxCell>
        <mxCell id="boqBojfsuFh5zOHX36aH-43" value="&lt;span style=&quot;font-size: 16px;&quot;&gt;定义在&amp;nbsp;&lt;b&gt;include/linux/mutex.h&lt;/b&gt;&lt;/span&gt;&lt;b style=&quot;font-size: 16px;&quot;&gt;&amp;nbsp;&lt;/b&gt;&lt;span style=&quot;font-size: 16px;&quot;&gt;文件&lt;/span&gt;" style="text;html=1;align=left;verticalAlign=middle;whiteSpace=wrap;rounded=0;fillColor=#f8cecc;strokeColor=#b85450;dashed=1;fontSize=14;" parent="1" vertex="1">
          <mxGeometry x="437.98" y="350" width="618.34" height="36" as="geometry" />
        </mxCell>
        <mxCell id="boqBojfsuFh5zOHX36aH-44" value="&lt;font style=&quot;font-size: 20px;&quot;&gt;🌻Make By Dakkk&lt;/font&gt;" style="html=1;shadow=0;dashed=0;shape=mxgraph.bootstrap.rrect;rSize=5;strokeColor=#1CA5B8;strokeWidth=1;fillColor=none;fontColor=#1CA5B8;whiteSpace=wrap;align=center;verticalAlign=middle;spacingLeft=0;fontStyle=1;fontSize=16;spacing=5;" parent="1" vertex="1">
          <mxGeometry x="281.15" y="570.0000000000001" width="111.67" height="70.39" as="geometry" />
        </mxCell>
        <mxCell id="boqBojfsuFh5zOHX36aH-48" value="&lt;span style=&quot;font-size: 16px;&quot;&gt;为什么？&lt;b&gt;二值信号量 效率不高、使用复杂、功能过度&lt;/b&gt;&lt;/span&gt;" style="text;html=1;align=left;verticalAlign=middle;whiteSpace=wrap;rounded=0;fillColor=#dae8fc;strokeColor=#6c8ebf;dashed=1;fontSize=14;" parent="1" vertex="1">
          <mxGeometry x="439.9999999999999" y="130" width="620.33" height="40" as="geometry" />
        </mxCell>
        <mxCell id="boqBojfsuFh5zOHX36aH-49" value="" style="shape=curlyBracket;whiteSpace=wrap;html=1;rounded=1;labelPosition=left;verticalLabelPosition=middle;align=right;verticalAlign=middle;fillColor=#dae8fc;strokeColor=#6c8ebf;strokeWidth=2;" parent="1" vertex="1">
          <mxGeometry x="409.33" y="150" width="29" height="155" as="geometry" />
        </mxCell>
        <mxCell id="boqBojfsuFh5zOHX36aH-50" value="&lt;span style=&quot;font-size: 16px;&quot;&gt;使用&lt;b&gt;mutex结构体&lt;/b&gt;来表示，定义在&lt;b&gt;include/linux/mutex.h&lt;/b&gt;中&lt;/span&gt;" style="text;html=1;align=left;verticalAlign=middle;whiteSpace=wrap;rounded=0;fillColor=#dae8fc;strokeColor=#6c8ebf;dashed=1;fontSize=14;" parent="1" vertex="1">
          <mxGeometry x="439.3299999999999" y="281" width="620.33" height="40" as="geometry" />
        </mxCell>
        <mxCell id="boqBojfsuFh5zOHX36aH-51" value="&lt;span style=&quot;font-size: 18px;&quot;&gt;struct&amp;nbsp;semaphore&lt;/span&gt;" style="swimlane;fontStyle=1;align=center;verticalAlign=top;childLayout=stackLayout;horizontal=1;startSize=30;horizontalStack=0;resizeParent=1;resizeParentMax=0;resizeLast=0;collapsible=1;marginBottom=0;whiteSpace=wrap;html=1;fillColor=#dae8fc;strokeColor=#6c8ebf;" parent="1" vertex="1">
          <mxGeometry x="1100" y="30" width="420" height="220" as="geometry" />
        </mxCell>
        <mxCell id="boqBojfsuFh5zOHX36aH-52" value="&lt;span style=&quot;font-size: 16px;&quot;&gt;atomic_long_t&amp;nbsp; &amp;nbsp;&lt;span style=&quot;white-space: pre;&quot;&gt;&#x9;&lt;/span&gt;&lt;b&gt;owner&lt;/b&gt;;&amp;nbsp; &amp;nbsp; &amp;nbsp; // 锁的所有者和状态信息&lt;/span&gt;" style="text;strokeColor=none;fillColor=none;align=left;verticalAlign=top;spacingLeft=4;spacingRight=4;overflow=hidden;rotatable=0;points=[[0,0.5],[1,0.5]];portConstraint=eastwest;whiteSpace=wrap;html=1;" parent="boqBojfsuFh5zOHX36aH-51" vertex="1">
          <mxGeometry y="30" width="420" height="26" as="geometry" />
        </mxCell>
        <mxCell id="boqBojfsuFh5zOHX36aH-53" value="&lt;span style=&quot;font-size: 16px;&quot;&gt;spinlock_t&amp;nbsp; &amp;nbsp; &amp;nbsp; &lt;span style=&quot;white-space: pre;&quot;&gt;&#x9;&lt;/span&gt;&lt;span style=&quot;white-space: pre;&quot;&gt;&#x9;&lt;/span&gt;&lt;b&gt;wait_lock&lt;/b&gt;;&amp;nbsp; // 保护等待队列的自旋锁&lt;/span&gt;" style="text;strokeColor=none;fillColor=none;align=left;verticalAlign=top;spacingLeft=4;spacingRight=4;overflow=hidden;rotatable=0;points=[[0,0.5],[1,0.5]];portConstraint=eastwest;whiteSpace=wrap;html=1;" parent="boqBojfsuFh5zOHX36aH-51" vertex="1">
          <mxGeometry y="56" width="420" height="26" as="geometry" />
        </mxCell>
        <mxCell id="boqBojfsuFh5zOHX36aH-54" value="&lt;span style=&quot;font-size: 16px;&quot;&gt;struct optimistic_spin_queue &lt;span style=&quot;white-space: pre;&quot;&gt;&#x9;&lt;/span&gt;&lt;b&gt;osq&lt;/b&gt;;&amp;nbsp; &amp;nbsp; &amp;nbsp; &amp;nbsp; // 乐观自旋队列&lt;/span&gt;" style="text;strokeColor=none;fillColor=none;align=left;verticalAlign=top;spacingLeft=4;spacingRight=4;overflow=hidden;rotatable=0;points=[[0,0.5],[1,0.5]];portConstraint=eastwest;whiteSpace=wrap;html=1;" parent="boqBojfsuFh5zOHX36aH-51" vertex="1">
          <mxGeometry y="82" width="420" height="26" as="geometry" />
        </mxCell>
        <mxCell id="boqBojfsuFh5zOHX36aH-65" value="&lt;span style=&quot;font-size: 16px;&quot;&gt;struct list_head&amp;nbsp; &amp;nbsp;&lt;span style=&quot;white-space: pre;&quot;&gt;&#x9;&lt;/span&gt;&lt;b&gt;wait_list&lt;/b&gt;;&amp;nbsp; &lt;span style=&quot;white-space: pre;&quot;&gt;&#x9;&lt;/span&gt;&lt;span style=&quot;white-space: pre;&quot;&gt;&#x9;&lt;/span&gt;// 等待队列&lt;/span&gt;" style="text;strokeColor=none;fillColor=none;align=left;verticalAlign=top;spacingLeft=4;spacingRight=4;overflow=hidden;rotatable=0;points=[[0,0.5],[1,0.5]];portConstraint=eastwest;whiteSpace=wrap;html=1;" parent="boqBojfsuFh5zOHX36aH-51" vertex="1">
          <mxGeometry y="108" width="420" height="26" as="geometry" />
        </mxCell>
        <mxCell id="boqBojfsuFh5zOHX36aH-67" value="&lt;span style=&quot;font-size: 16px;&quot;&gt;void&amp;nbsp; &amp;nbsp; &amp;nbsp; &amp;nbsp; &amp;nbsp;&lt;span style=&quot;white-space: pre;&quot;&gt;&#x9;&lt;/span&gt;&lt;span style=&quot;white-space: pre;&quot;&gt;&#x9;&lt;/span&gt;*&lt;b&gt;magic&lt;/b&gt;;&amp;nbsp; &amp;nbsp; &amp;nbsp; &lt;span style=&quot;white-space: pre;&quot;&gt;&#x9;&lt;/span&gt;&lt;span style=&quot;white-space: pre;&quot;&gt;&#x9;&lt;/span&gt;// 调试信息&lt;/span&gt;" style="text;strokeColor=none;fillColor=none;align=left;verticalAlign=top;spacingLeft=4;spacingRight=4;overflow=hidden;rotatable=0;points=[[0,0.5],[1,0.5]];portConstraint=eastwest;whiteSpace=wrap;html=1;" parent="boqBojfsuFh5zOHX36aH-51" vertex="1">
          <mxGeometry y="134" width="420" height="26" as="geometry" />
        </mxCell>
        <mxCell id="boqBojfsuFh5zOHX36aH-66" value="&lt;span style=&quot;font-size: 16px;&quot;&gt;struct lockdep_map&amp;nbsp; &lt;span style=&quot;white-space: pre;&quot;&gt;&#x9;&lt;/span&gt;&lt;b&gt;dep_map&lt;/b&gt;;&amp;nbsp; &amp;nbsp; &amp;nbsp;// 死锁检测信息&lt;/span&gt;" style="text;strokeColor=none;fillColor=none;align=left;verticalAlign=top;spacingLeft=4;spacingRight=4;overflow=hidden;rotatable=0;points=[[0,0.5],[1,0.5]];portConstraint=eastwest;whiteSpace=wrap;html=1;" parent="boqBojfsuFh5zOHX36aH-51" vertex="1">
          <mxGeometry y="160" width="420" height="26" as="geometry" />
        </mxCell>
        <mxCell id="boqBojfsuFh5zOHX36aH-55" value="" style="line;strokeWidth=1;fillColor=none;align=left;verticalAlign=middle;spacingTop=-1;spacingLeft=3;spacingRight=3;rotatable=0;labelPosition=right;points=[];portConstraint=eastwest;strokeColor=inherit;" parent="boqBojfsuFh5zOHX36aH-51" vertex="1">
          <mxGeometry y="186" width="420" height="8" as="geometry" />
        </mxCell>
        <mxCell id="boqBojfsuFh5zOHX36aH-56" value="&lt;span style=&quot;font-size: 16px;&quot;&gt;无回调函数&lt;/span&gt;" style="text;strokeColor=none;fillColor=none;align=left;verticalAlign=top;spacingLeft=4;spacingRight=4;overflow=hidden;rotatable=0;points=[[0,0.5],[1,0.5]];portConstraint=eastwest;whiteSpace=wrap;html=1;" parent="boqBojfsuFh5zOHX36aH-51" vertex="1">
          <mxGeometry y="194" width="420" height="26" as="geometry" />
        </mxCell>
        <mxCell id="boqBojfsuFh5zOHX36aH-57" style="edgeStyle=orthogonalEdgeStyle;rounded=0;orthogonalLoop=1;jettySize=auto;html=1;entryX=0.003;entryY=0.149;entryDx=0;entryDy=0;entryPerimeter=0;fillColor=#dae8fc;strokeColor=#6c8ebf;strokeWidth=2;" parent="1" source="boqBojfsuFh5zOHX36aH-50" target="boqBojfsuFh5zOHX36aH-51" edge="1">
          <mxGeometry relative="1" as="geometry">
            <Array as="points">
              <mxPoint x="1080" y="301" />
              <mxPoint x="1080" y="63" />
            </Array>
          </mxGeometry>
        </mxCell>
        <mxCell id="boqBojfsuFh5zOHX36aH-58" value="&lt;h2&gt;3、使用规则&lt;br&gt;&lt;/h2&gt;" style="rounded=1;whiteSpace=wrap;html=1;fillColor=#ffe6cc;strokeColor=#d79b00;fontStyle=1;align=left;" parent="1" vertex="1">
          <mxGeometry x="264.8499999999999" y="815" width="147.33" height="40" as="geometry" />
        </mxCell>
        <mxCell id="boqBojfsuFh5zOHX36aH-59" value="&lt;span style=&quot;font-size: 16px;&quot;&gt;&lt;b&gt;所有权限制&lt;span style=&quot;white-space: pre;&quot;&gt;&#x9;&lt;/span&gt;：&lt;/b&gt;只有mutex的持有者才可以释放锁&lt;/span&gt;" style="text;html=1;align=left;verticalAlign=middle;whiteSpace=wrap;rounded=0;fillColor=#ffe6cc;strokeColor=#d79b00;dashed=1;fontSize=14;" parent="1" vertex="1">
          <mxGeometry x="437.98" y="700" width="618.34" height="36" as="geometry" />
        </mxCell>
        <mxCell id="boqBojfsuFh5zOHX36aH-60" value="&lt;span style=&quot;font-size: 16px;&quot;&gt;&lt;b&gt;不可重复释放&lt;span style=&quot;white-space: pre;&quot;&gt;&#x9;&lt;/span&gt;：&lt;/b&gt;不可以多次释放同一把锁&lt;/span&gt;" style="text;html=1;align=left;verticalAlign=middle;whiteSpace=wrap;rounded=0;fillColor=#ffe6cc;strokeColor=#d79b00;dashed=1;fontSize=14;" parent="1" vertex="1">
          <mxGeometry x="437.47" y="746" width="618.34" height="36" as="geometry" />
        </mxCell>
        <mxCell id="boqBojfsuFh5zOHX36aH-61" value="&lt;span style=&quot;font-size: 16px;&quot;&gt;&lt;b&gt;不允许递归&lt;span style=&quot;white-space: pre;&quot;&gt;&#x9;&lt;/span&gt;：&lt;/b&gt;不允许重复获取同一把锁，否则会死锁&lt;/span&gt;" style="text;html=1;align=left;verticalAlign=middle;whiteSpace=wrap;rounded=0;fillColor=#ffe6cc;strokeColor=#d79b00;dashed=1;fontSize=14;" parent="1" vertex="1">
          <mxGeometry x="437.47" y="792" width="618.34" height="36" as="geometry" />
        </mxCell>
        <mxCell id="boqBojfsuFh5zOHX36aH-62" value="&lt;span style=&quot;font-size: 16px;&quot;&gt;&lt;b&gt;正确初始化&lt;span style=&quot;white-space: pre;&quot;&gt;&#x9;&lt;/span&gt;：&lt;/b&gt;必须使用mutex初始化API完成初始化&lt;/span&gt;" style="text;html=1;align=left;verticalAlign=middle;whiteSpace=wrap;rounded=0;fillColor=#ffe6cc;strokeColor=#d79b00;dashed=1;fontSize=14;" parent="1" vertex="1">
          <mxGeometry x="437.47" y="839" width="618.34" height="36" as="geometry" />
        </mxCell>
        <mxCell id="boqBojfsuFh5zOHX36aH-63" value="" style="shape=curlyBracket;whiteSpace=wrap;html=1;rounded=1;labelPosition=left;verticalLabelPosition=middle;align=right;verticalAlign=middle;fillColor=#ffe6cc;strokeColor=#d79b00;strokeWidth=2;" parent="1" vertex="1">
          <mxGeometry x="408.63" y="720" width="29" height="230" as="geometry" />
        </mxCell>
        <mxCell id="boqBojfsuFh5zOHX36aH-64" value="&lt;span style=&quot;font-size: 16px;&quot;&gt;&lt;b&gt;特点：独占访问、所有权明确、不可递归(重复获得锁)、会导致睡眠&lt;/b&gt;&lt;/span&gt;" style="text;html=1;align=left;verticalAlign=middle;whiteSpace=wrap;rounded=0;fillColor=#dae8fc;strokeColor=#6c8ebf;dashed=1;fontSize=14;" parent="1" vertex="1">
          <mxGeometry x="440.99999999999994" y="230" width="620.33" height="40" as="geometry" />
        </mxCell>
        <mxCell id="boqBojfsuFh5zOHX36aH-68" value="&lt;div&gt;&lt;span style=&quot;background-color: transparent; font-size: 16px;&quot;&gt;&lt;b&gt;高位部分&lt;span style=&quot;white-space: pre;&quot;&gt;&#x9;&lt;/span&gt;&lt;/b&gt;&lt;/span&gt;&lt;span style=&quot;font-size: 16px;&quot;&gt;&lt;b&gt;：&lt;/b&gt;&lt;/span&gt;&lt;span style=&quot;background-color: transparent; font-size: 16px;&quot;&gt;存储锁持有者的task_struct指针&lt;/span&gt;&lt;/div&gt;&lt;div&gt;&lt;span style=&quot;background-color: transparent; font-size: 16px;&quot;&gt;&lt;b&gt;低3位&lt;span style=&quot;white-space: pre;&quot;&gt;&#x9;&lt;/span&gt;&lt;/b&gt;&lt;/span&gt;&lt;span style=&quot;font-size: 16px;&quot;&gt;&lt;b&gt;：&lt;/b&gt;&lt;/span&gt;&lt;span style=&quot;background-color: transparent; font-size: 16px;&quot;&gt;存储状态标志位&lt;/span&gt;&lt;/div&gt;&lt;div&gt;&lt;span style=&quot;background-color: transparent; font-size: 16px;&quot;&gt;&lt;b&gt;值为0&lt;span style=&quot;white-space: pre;&quot;&gt;&#x9;&lt;/span&gt;&lt;/b&gt;&lt;/span&gt;&lt;span style=&quot;font-size: 16px;&quot;&gt;&lt;b&gt;：&lt;/b&gt;&lt;/span&gt;&lt;span style=&quot;background-color: transparent; font-size: 16px;&quot;&gt;表示锁未被持有&lt;/span&gt;&lt;/div&gt;&lt;div&gt;&lt;span style=&quot;background-color: transparent; font-size: 16px;&quot;&gt;&lt;b&gt;非零值&lt;span style=&quot;white-space: pre;&quot;&gt;&#x9;&lt;/span&gt;&lt;/b&gt;&lt;/span&gt;&lt;span style=&quot;font-size: 16px;&quot;&gt;&lt;b&gt;：&lt;/b&gt;&lt;/span&gt;&lt;span style=&quot;background-color: transparent; font-size: 16px;&quot;&gt;锁被持有，同时包含持有者和状态信息&lt;/span&gt;&lt;/div&gt;" style="text;html=1;align=left;verticalAlign=middle;whiteSpace=wrap;rounded=0;fillColor=#dae8fc;strokeColor=#6c8ebf;dashed=1;fontSize=14;" parent="1" vertex="1">
          <mxGeometry x="1130" y="260" width="380" height="82" as="geometry" />
        </mxCell>
        <mxCell id="boqBojfsuFh5zOHX36aH-69" style="edgeStyle=orthogonalEdgeStyle;rounded=0;orthogonalLoop=1;jettySize=auto;html=1;entryX=1;entryY=0.5;entryDx=0;entryDy=0;fillColor=#dae8fc;strokeColor=#6c8ebf;strokeWidth=2;exitX=1;exitY=0.5;exitDx=0;exitDy=0;" parent="1" source="boqBojfsuFh5zOHX36aH-52" target="boqBojfsuFh5zOHX36aH-68" edge="1">
          <mxGeometry relative="1" as="geometry">
            <Array as="points">
              <mxPoint x="1540" y="73" />
              <mxPoint x="1540" y="301" />
            </Array>
          </mxGeometry>
        </mxCell>
        <mxCell id="boqBojfsuFh5zOHX36aH-80" value="&lt;span style=&quot;font-size: 16px;&quot;&gt;&lt;b&gt;不可重复初始化：&lt;/b&gt;不可以多次重复对mutex锁进行初始化&lt;/span&gt;" style="text;html=1;align=left;verticalAlign=middle;whiteSpace=wrap;rounded=0;fillColor=#ffe6cc;strokeColor=#d79b00;dashed=1;fontSize=14;" parent="1" vertex="1">
          <mxGeometry x="437.47" y="886" width="618.34" height="36" as="geometry" />
        </mxCell>
        <mxCell id="boqBojfsuFh5zOHX36aH-81" value="&lt;span style=&quot;font-size: 16px;&quot;&gt;&lt;b&gt;退出时释放&lt;span style=&quot;white-space: pre;&quot;&gt;&#x9;&lt;/span&gt;：&lt;/b&gt;线程退出后必须释放自己持有的所有mutex锁&lt;/span&gt;" style="text;html=1;align=left;verticalAlign=middle;whiteSpace=wrap;rounded=0;fillColor=#ffe6cc;strokeColor=#d79b00;dashed=1;fontSize=14;" parent="1" vertex="1">
          <mxGeometry x="437.47" y="936" width="618.34" height="36" as="geometry" />
        </mxCell>
        <mxCell id="boqBojfsuFh5zOHX36aH-82" value="&lt;font style=&quot;font-size: 16px;&quot;&gt;互斥锁采用&lt;b&gt;混合策略：&lt;br&gt;1. 轻度竞争 --&amp;gt;&amp;nbsp; 乐观自旋&lt;br&gt;2. 重度竞争 --&amp;gt;&amp;nbsp; 睡眠等待&lt;/b&gt;&lt;/font&gt;" style="text;html=1;align=left;verticalAlign=middle;whiteSpace=wrap;rounded=0;fillColor=#dae8fc;strokeColor=#6c8ebf;dashed=1;fontSize=14;" parent="1" vertex="1">
          <mxGeometry x="550" y="40" width="380" height="70" as="geometry" />
        </mxCell>
        <mxCell id="boqBojfsuFh5zOHX36aH-83" value="&lt;h2&gt;4、互斥锁机制&lt;br&gt;&lt;/h2&gt;" style="rounded=1;whiteSpace=wrap;html=1;fillColor=#e1d5e7;strokeColor=#9673a6;fontStyle=1;align=left;" parent="1" vertex="1">
          <mxGeometry x="264.8499999999999" y="1076" width="147.33" height="40" as="geometry" />
        </mxCell>
        <mxCell id="boqBojfsuFh5zOHX36aH-127" style="edgeStyle=orthogonalEdgeStyle;rounded=0;orthogonalLoop=1;jettySize=auto;html=1;entryX=0;entryY=0.5;entryDx=0;entryDy=0;fillColor=#e1d5e7;strokeColor=#9673a6;strokeWidth=2;" parent="1" source="boqBojfsuFh5zOHX36aH-87" target="boqBojfsuFh5zOHX36aH-98" edge="1">
          <mxGeometry relative="1" as="geometry" />
        </mxCell>
        <mxCell id="boqBojfsuFh5zOHX36aH-87" value="&lt;span style=&quot;font-size: 16px;&quot;&gt;&lt;b&gt;获取锁&lt;/b&gt;机制&lt;/span&gt;" style="text;html=1;align=left;verticalAlign=middle;whiteSpace=wrap;rounded=0;fillColor=#e1d5e7;strokeColor=#9673a6;dashed=1;fontSize=14;" parent="1" vertex="1">
          <mxGeometry x="437.47" y="990" width="618.34" height="36" as="geometry" />
        </mxCell>
        <mxCell id="boqBojfsuFh5zOHX36aH-88" value="" style="shape=curlyBracket;whiteSpace=wrap;html=1;rounded=1;labelPosition=left;verticalLabelPosition=middle;align=right;verticalAlign=middle;fillColor=#e1d5e7;strokeColor=#9673a6;strokeWidth=2;" parent="1" vertex="1">
          <mxGeometry x="408.63" y="1010" width="29" height="170" as="geometry" />
        </mxCell>
        <mxCell id="boqBojfsuFh5zOHX36aH-128" style="edgeStyle=orthogonalEdgeStyle;rounded=0;orthogonalLoop=1;jettySize=auto;html=1;entryX=0;entryY=0.5;entryDx=0;entryDy=0;fillColor=#e1d5e7;strokeColor=#9673a6;strokeWidth=2;" parent="1" source="boqBojfsuFh5zOHX36aH-89" target="boqBojfsuFh5zOHX36aH-114" edge="1">
          <mxGeometry relative="1" as="geometry" />
        </mxCell>
        <mxCell id="boqBojfsuFh5zOHX36aH-89" value="&lt;span style=&quot;font-size: 16px;&quot;&gt;&lt;b&gt;乐观自旋&lt;/b&gt;机制&lt;/span&gt;" style="text;html=1;align=left;verticalAlign=middle;whiteSpace=wrap;rounded=0;fillColor=#e1d5e7;strokeColor=#9673a6;dashed=1;fontSize=14;" parent="1" vertex="1">
          <mxGeometry x="437.47" y="1032" width="618.34" height="36" as="geometry" />
        </mxCell>
        <mxCell id="boqBojfsuFh5zOHX36aH-90" value="&lt;span style=&quot;font-size: 16px;&quot;&gt;&lt;b&gt;睡眠等待&lt;/b&gt;机制&lt;/span&gt;" style="text;html=1;align=left;verticalAlign=middle;whiteSpace=wrap;rounded=0;fillColor=#e1d5e7;strokeColor=#9673a6;dashed=1;fontSize=14;" parent="1" vertex="1">
          <mxGeometry x="437.47" y="1074" width="618.34" height="36" as="geometry" />
        </mxCell>
        <mxCell id="boqBojfsuFh5zOHX36aH-91" value="" style="shape=table;startSize=0;container=1;collapsible=0;childLayout=tableLayout;fixedRows=1;rowLines=0;fontStyle=0;strokeColor=#9673a6;fontSize=16;fillColor=none;" parent="1" vertex="1">
          <mxGeometry x="1100" y="859" width="509.5" height="131" as="geometry" />
        </mxCell>
        <mxCell id="boqBojfsuFh5zOHX36aH-92" value="" style="shape=tableRow;horizontal=0;startSize=0;swimlaneHead=0;swimlaneBody=0;top=0;left=0;bottom=0;right=0;collapsible=0;dropTarget=0;fillColor=none;points=[[0,0.5],[1,0.5]];portConstraint=eastwest;strokeColor=inherit;fontSize=16;" parent="boqBojfsuFh5zOHX36aH-91" vertex="1">
          <mxGeometry width="509.5" height="71" as="geometry" />
        </mxCell>
        <mxCell id="boqBojfsuFh5zOHX36aH-93" value="&lt;b&gt;mutex_lock函数&lt;/b&gt;" style="shape=partialRectangle;html=1;whiteSpace=wrap;connectable=0;fillColor=none;top=0;left=0;bottom=0;right=0;overflow=hidden;pointerEvents=1;strokeColor=#82b366;fontSize=16;" parent="boqBojfsuFh5zOHX36aH-92" vertex="1">
          <mxGeometry width="150" height="71" as="geometry">
            <mxRectangle width="150" height="71" as="alternateBounds" />
          </mxGeometry>
        </mxCell>
        <mxCell id="boqBojfsuFh5zOHX36aH-94" value="&lt;div&gt;1. &lt;b&gt;检查&lt;/b&gt;当前上下文是否允许睡眠&lt;/div&gt;&lt;div&gt;2. &lt;b&gt;尝试快速&lt;/b&gt;获取锁，乐观尝试&lt;/div&gt;&lt;div&gt;3. 快速路径失败，&lt;b&gt;进入慢速&lt;/b&gt;路径&lt;/div&gt;" style="shape=partialRectangle;html=1;whiteSpace=wrap;connectable=0;fillColor=none;top=0;left=0;bottom=0;right=0;align=left;spacingLeft=6;overflow=hidden;strokeColor=#82b366;fontSize=16;" parent="boqBojfsuFh5zOHX36aH-92" vertex="1">
          <mxGeometry x="150" width="360" height="71" as="geometry">
            <mxRectangle width="360" height="71" as="alternateBounds" />
          </mxGeometry>
        </mxCell>
        <mxCell id="boqBojfsuFh5zOHX36aH-95" value="" style="shape=tableRow;horizontal=0;startSize=0;swimlaneHead=0;swimlaneBody=0;top=0;left=0;bottom=0;right=0;collapsible=0;dropTarget=0;fillColor=none;points=[[0,0.5],[1,0.5]];portConstraint=eastwest;strokeColor=inherit;fontSize=16;" parent="boqBojfsuFh5zOHX36aH-91" vertex="1">
          <mxGeometry y="71" width="509.5" height="30" as="geometry" />
        </mxCell>
        <mxCell id="boqBojfsuFh5zOHX36aH-96" value="&lt;div style=&quot;text-align: left;&quot;&gt;&lt;b&gt;快速路径-乐观尝试&lt;/b&gt;&lt;/div&gt;" style="shape=partialRectangle;html=1;whiteSpace=wrap;connectable=0;fillColor=none;top=0;left=0;bottom=0;right=0;overflow=hidden;pointerEvents=1;strokeColor=#d6b656;fontSize=16;" parent="boqBojfsuFh5zOHX36aH-95" vertex="1">
          <mxGeometry width="150" height="30" as="geometry">
            <mxRectangle width="150" height="30" as="alternateBounds" />
          </mxGeometry>
        </mxCell>
        <mxCell id="boqBojfsuFh5zOHX36aH-97" value="__mutex_trylock_fast，性能接近自旋锁" style="shape=partialRectangle;html=1;whiteSpace=wrap;connectable=0;fillColor=none;top=0;left=0;bottom=0;right=0;align=left;spacingLeft=6;overflow=hidden;strokeColor=#d6b656;fontSize=16;" parent="boqBojfsuFh5zOHX36aH-95" vertex="1">
          <mxGeometry x="150" width="360" height="30" as="geometry">
            <mxRectangle width="360" height="30" as="alternateBounds" />
          </mxGeometry>
        </mxCell>
        <mxCell id="boqBojfsuFh5zOHX36aH-99" value="" style="shape=tableRow;horizontal=0;startSize=0;swimlaneHead=0;swimlaneBody=0;top=0;left=0;bottom=0;right=0;collapsible=0;dropTarget=0;fillColor=none;points=[[0,0.5],[1,0.5]];portConstraint=eastwest;strokeColor=inherit;fontSize=16;" parent="boqBojfsuFh5zOHX36aH-91" vertex="1">
          <mxGeometry y="101" width="509.5" height="30" as="geometry" />
        </mxCell>
        <mxCell id="boqBojfsuFh5zOHX36aH-100" value="&lt;div style=&quot;text-align: left;&quot;&gt;&lt;b&gt;慢速路径-复杂策略&lt;/b&gt;&lt;/div&gt;" style="shape=partialRectangle;html=1;whiteSpace=wrap;connectable=0;fillColor=none;top=0;left=0;bottom=0;right=0;overflow=hidden;pointerEvents=1;strokeColor=#d6b656;fontSize=16;" parent="boqBojfsuFh5zOHX36aH-99" vertex="1">
          <mxGeometry width="150" height="30" as="geometry">
            <mxRectangle width="150" height="30" as="alternateBounds" />
          </mxGeometry>
        </mxCell>
        <mxCell id="boqBojfsuFh5zOHX36aH-101" value="__mutex_lock_slowpath，互斥锁实现的核心函数" style="shape=partialRectangle;html=1;whiteSpace=wrap;connectable=0;fillColor=none;top=0;left=0;bottom=0;right=0;align=left;spacingLeft=6;overflow=hidden;strokeColor=#d6b656;fontSize=16;" parent="boqBojfsuFh5zOHX36aH-99" vertex="1">
          <mxGeometry x="150" width="360" height="30" as="geometry">
            <mxRectangle width="360" height="30" as="alternateBounds" />
          </mxGeometry>
        </mxCell>
        <mxCell id="boqBojfsuFh5zOHX36aH-98" value="&lt;h1&gt;&lt;font style=&quot;font-size: 18px;&quot;&gt;获取锁机制&lt;/font&gt;&lt;/h1&gt;" style="rounded=0;whiteSpace=wrap;html=1;fillColor=#e1d5e7;strokeColor=#9673a6;" parent="1" vertex="1">
          <mxGeometry x="1100" y="830" width="510" height="29" as="geometry" />
        </mxCell>
        <mxCell id="boqBojfsuFh5zOHX36aH-142" style="edgeStyle=orthogonalEdgeStyle;rounded=0;orthogonalLoop=1;jettySize=auto;html=1;entryX=0;entryY=0.5;entryDx=0;entryDy=0;fillColor=#e1d5e7;strokeColor=#9673a6;strokeWidth=2;" parent="1" source="boqBojfsuFh5zOHX36aH-102" target="boqBojfsuFh5zOHX36aH-141" edge="1">
          <mxGeometry relative="1" as="geometry" />
        </mxCell>
        <mxCell id="boqBojfsuFh5zOHX36aH-102" value="&lt;span style=&quot;font-size: 16px;&quot;&gt;&lt;b&gt;锁释放和唤醒&lt;/b&gt;机制&lt;/span&gt;" style="text;html=1;align=left;verticalAlign=middle;whiteSpace=wrap;rounded=0;fillColor=#e1d5e7;strokeColor=#9673a6;dashed=1;fontSize=14;" parent="1" vertex="1">
          <mxGeometry x="438.33000000000004" y="1116" width="618.34" height="36" as="geometry" />
        </mxCell>
        <mxCell id="boqBojfsuFh5zOHX36aH-103" value="&lt;span style=&quot;font-size: 16px;&quot;&gt;&lt;b&gt;锁转交（handoff）&lt;/b&gt;机制：锁持有者释放时，不用单单设置锁的状态，而是&lt;b&gt;直接转交&lt;/b&gt;&lt;/span&gt;" style="text;html=1;align=left;verticalAlign=middle;whiteSpace=wrap;rounded=0;fillColor=#e1d5e7;strokeColor=#9673a6;dashed=1;fontSize=14;" parent="1" vertex="1">
          <mxGeometry x="438.33000000000004" y="1160" width="618.34" height="36" as="geometry" />
        </mxCell>
        <mxCell id="boqBojfsuFh5zOHX36aH-104" value="" style="shape=table;startSize=0;container=1;collapsible=0;childLayout=tableLayout;fixedRows=1;rowLines=0;fontStyle=0;strokeColor=#9673a6;fontSize=16;fillColor=none;" parent="1" vertex="1">
          <mxGeometry x="1100" y="1029" width="509.5" height="121" as="geometry" />
        </mxCell>
        <mxCell id="boqBojfsuFh5zOHX36aH-105" value="" style="shape=tableRow;horizontal=0;startSize=0;swimlaneHead=0;swimlaneBody=0;top=0;left=0;bottom=0;right=0;collapsible=0;dropTarget=0;fillColor=none;points=[[0,0.5],[1,0.5]];portConstraint=eastwest;strokeColor=inherit;fontSize=16;" parent="boqBojfsuFh5zOHX36aH-104" vertex="1">
          <mxGeometry width="509.5" height="71" as="geometry" />
        </mxCell>
        <mxCell id="boqBojfsuFh5zOHX36aH-106" value="&lt;b&gt;条件&lt;/b&gt;" style="shape=partialRectangle;html=1;whiteSpace=wrap;connectable=0;fillColor=none;top=0;left=0;bottom=0;right=0;overflow=hidden;pointerEvents=1;strokeColor=#82b366;fontSize=16;" parent="boqBojfsuFh5zOHX36aH-105" vertex="1">
          <mxGeometry width="100" height="71" as="geometry">
            <mxRectangle width="100" height="71" as="alternateBounds" />
          </mxGeometry>
        </mxCell>
        <mxCell id="boqBojfsuFh5zOHX36aH-107" value="&lt;div&gt;1. 锁持有者正在运行：其他CPU上活跃运行&lt;br&gt;2. 系统负载不高：无其他高优先级任务要调度&lt;br&gt;3. 自旋队列不为空：MCS锁管理自旋者&lt;/div&gt;" style="shape=partialRectangle;html=1;whiteSpace=wrap;connectable=0;fillColor=none;top=0;left=0;bottom=0;right=0;align=left;spacingLeft=6;overflow=hidden;strokeColor=#82b366;fontSize=16;" parent="boqBojfsuFh5zOHX36aH-105" vertex="1">
          <mxGeometry x="100" width="410" height="71" as="geometry">
            <mxRectangle width="410" height="71" as="alternateBounds" />
          </mxGeometry>
        </mxCell>
        <mxCell id="boqBojfsuFh5zOHX36aH-108" value="" style="shape=tableRow;horizontal=0;startSize=0;swimlaneHead=0;swimlaneBody=0;top=0;left=0;bottom=0;right=0;collapsible=0;dropTarget=0;fillColor=none;points=[[0,0.5],[1,0.5]];portConstraint=eastwest;strokeColor=inherit;fontSize=16;" parent="boqBojfsuFh5zOHX36aH-104" vertex="1">
          <mxGeometry y="71" width="509.5" height="50" as="geometry" />
        </mxCell>
        <mxCell id="boqBojfsuFh5zOHX36aH-109" value="&lt;div style=&quot;text-align: left;&quot;&gt;&lt;b&gt;MCS锁机制&lt;/b&gt;&lt;/div&gt;" style="shape=partialRectangle;html=1;whiteSpace=wrap;connectable=0;fillColor=none;top=0;left=0;bottom=0;right=0;overflow=hidden;pointerEvents=1;strokeColor=#d6b656;fontSize=16;" parent="boqBojfsuFh5zOHX36aH-108" vertex="1">
          <mxGeometry width="100" height="50" as="geometry">
            <mxRectangle width="100" height="50" as="alternateBounds" />
          </mxGeometry>
        </mxCell>
        <mxCell id="boqBojfsuFh5zOHX36aH-110" value="保证同一时间只有一个CPU在真正自旋等待锁持有者&lt;br&gt;其他CPU在本地变量上自旋，大大减少了缓存冲突" style="shape=partialRectangle;html=1;whiteSpace=wrap;connectable=0;fillColor=none;top=0;left=0;bottom=0;right=0;align=left;spacingLeft=6;overflow=hidden;strokeColor=#d6b656;fontSize=16;" parent="boqBojfsuFh5zOHX36aH-108" vertex="1">
          <mxGeometry x="100" width="410" height="50" as="geometry">
            <mxRectangle width="410" height="50" as="alternateBounds" />
          </mxGeometry>
        </mxCell>
        <mxCell id="boqBojfsuFh5zOHX36aH-114" value="&lt;h1&gt;&lt;font style=&quot;font-size: 18px;&quot;&gt;乐观自旋机制&lt;/font&gt;&lt;/h1&gt;" style="rounded=0;whiteSpace=wrap;html=1;fillColor=#e1d5e7;strokeColor=#9673a6;" parent="1" vertex="1">
          <mxGeometry x="1100" y="1000" width="510" height="29" as="geometry" />
        </mxCell>
        <mxCell id="boqBojfsuFh5zOHX36aH-115" value="" style="shape=table;startSize=0;container=1;collapsible=0;childLayout=tableLayout;fixedRows=1;rowLines=0;fontStyle=0;strokeColor=#9673a6;fontSize=16;fillColor=none;" parent="1" vertex="1">
          <mxGeometry x="270" y="1249" width="660" height="121" as="geometry" />
        </mxCell>
        <mxCell id="boqBojfsuFh5zOHX36aH-116" value="" style="shape=tableRow;horizontal=0;startSize=0;swimlaneHead=0;swimlaneBody=0;top=0;left=0;bottom=0;right=0;collapsible=0;dropTarget=0;fillColor=none;points=[[0,0.5],[1,0.5]];portConstraint=eastwest;strokeColor=inherit;fontSize=16;" parent="boqBojfsuFh5zOHX36aH-115" vertex="1">
          <mxGeometry width="660" height="31" as="geometry" />
        </mxCell>
        <mxCell id="boqBojfsuFh5zOHX36aH-117" value="&lt;b&gt;条件&lt;/b&gt;" style="shape=partialRectangle;html=1;whiteSpace=wrap;connectable=0;fillColor=none;top=0;left=0;bottom=0;right=0;overflow=hidden;pointerEvents=1;strokeColor=#82b366;fontSize=16;" parent="boqBojfsuFh5zOHX36aH-116" vertex="1">
          <mxGeometry width="120" height="31" as="geometry">
            <mxRectangle width="120" height="31" as="alternateBounds" />
          </mxGeometry>
        </mxCell>
        <mxCell id="boqBojfsuFh5zOHX36aH-118" value="乐观自旋失败 或 不适用" style="shape=partialRectangle;html=1;whiteSpace=wrap;connectable=0;fillColor=none;top=0;left=0;bottom=0;right=0;align=left;spacingLeft=6;overflow=hidden;strokeColor=#82b366;fontSize=16;" parent="boqBojfsuFh5zOHX36aH-116" vertex="1">
          <mxGeometry x="120" width="540" height="31" as="geometry">
            <mxRectangle width="540" height="31" as="alternateBounds" />
          </mxGeometry>
        </mxCell>
        <mxCell id="boqBojfsuFh5zOHX36aH-119" value="" style="shape=tableRow;horizontal=0;startSize=0;swimlaneHead=0;swimlaneBody=0;top=0;left=0;bottom=0;right=0;collapsible=0;dropTarget=0;fillColor=none;points=[[0,0.5],[1,0.5]];portConstraint=eastwest;strokeColor=inherit;fontSize=16;" parent="boqBojfsuFh5zOHX36aH-115" vertex="1">
          <mxGeometry y="31" width="660" height="30" as="geometry" />
        </mxCell>
        <mxCell id="boqBojfsuFh5zOHX36aH-120" value="&lt;div style=&quot;text-align: left;&quot;&gt;&lt;b&gt;等待队列的保护&lt;/b&gt;&lt;/div&gt;" style="shape=partialRectangle;html=1;whiteSpace=wrap;connectable=0;fillColor=none;top=0;left=0;bottom=0;right=0;overflow=hidden;pointerEvents=1;strokeColor=#d6b656;fontSize=16;" parent="boqBojfsuFh5zOHX36aH-119" vertex="1">
          <mxGeometry width="120" height="30" as="geometry">
            <mxRectangle width="120" height="30" as="alternateBounds" />
          </mxGeometry>
        </mxCell>
        <mxCell id="boqBojfsuFh5zOHX36aH-121" value="使用 wait_lock 自旋锁保护" style="shape=partialRectangle;html=1;whiteSpace=wrap;connectable=0;fillColor=none;top=0;left=0;bottom=0;right=0;align=left;spacingLeft=6;overflow=hidden;strokeColor=#d6b656;fontSize=16;" parent="boqBojfsuFh5zOHX36aH-119" vertex="1">
          <mxGeometry x="120" width="540" height="30" as="geometry">
            <mxRectangle width="540" height="30" as="alternateBounds" />
          </mxGeometry>
        </mxCell>
        <mxCell id="boqBojfsuFh5zOHX36aH-122" value="" style="shape=tableRow;horizontal=0;startSize=0;swimlaneHead=0;swimlaneBody=0;top=0;left=0;bottom=0;right=0;collapsible=0;dropTarget=0;fillColor=none;points=[[0,0.5],[1,0.5]];portConstraint=eastwest;strokeColor=inherit;fontSize=16;" parent="boqBojfsuFh5zOHX36aH-115" vertex="1">
          <mxGeometry y="61" width="660" height="60" as="geometry" />
        </mxCell>
        <mxCell id="boqBojfsuFh5zOHX36aH-123" value="&lt;div style=&quot;text-align: left;&quot;&gt;&lt;b&gt;两种等待模式&lt;/b&gt;&lt;/div&gt;" style="shape=partialRectangle;html=1;whiteSpace=wrap;connectable=0;fillColor=none;top=0;left=0;bottom=0;right=0;overflow=hidden;pointerEvents=1;strokeColor=#d6b656;fontSize=16;" parent="boqBojfsuFh5zOHX36aH-122" vertex="1">
          <mxGeometry width="120" height="60" as="geometry">
            <mxRectangle width="120" height="60" as="alternateBounds" />
          </mxGeometry>
        </mxCell>
        <mxCell id="boqBojfsuFh5zOHX36aH-124" value="1.&amp;nbsp;&lt;b&gt;TASK_UNINTERRUPTIBLE&lt;/b&gt;：不可中断等待，用于mutex_lock()&lt;br&gt;2.&amp;nbsp;&lt;b&gt;TASK_INTERRUPTIBLE&lt;/b&gt;：可中断等待，用于mutex_lock_interruptible()" style="shape=partialRectangle;html=1;whiteSpace=wrap;connectable=0;fillColor=none;top=0;left=0;bottom=0;right=0;align=left;spacingLeft=6;overflow=hidden;strokeColor=#d6b656;fontSize=16;" parent="boqBojfsuFh5zOHX36aH-122" vertex="1">
          <mxGeometry x="120" width="540" height="60" as="geometry">
            <mxRectangle width="540" height="60" as="alternateBounds" />
          </mxGeometry>
        </mxCell>
        <mxCell id="boqBojfsuFh5zOHX36aH-125" value="&lt;h1&gt;&lt;font style=&quot;font-size: 18px;&quot;&gt;睡眠等待机制&lt;/font&gt;&lt;/h1&gt;" style="rounded=0;whiteSpace=wrap;html=1;fillColor=#e1d5e7;strokeColor=#9673a6;" parent="1" vertex="1">
          <mxGeometry x="270" y="1220" width="660" height="29" as="geometry" />
        </mxCell>
        <mxCell id="boqBojfsuFh5zOHX36aH-130" style="edgeStyle=orthogonalEdgeStyle;rounded=0;orthogonalLoop=1;jettySize=auto;html=1;entryX=0.5;entryY=0;entryDx=0;entryDy=0;fillColor=#e1d5e7;strokeColor=#9673a6;strokeWidth=2;" parent="1" source="boqBojfsuFh5zOHX36aH-90" target="boqBojfsuFh5zOHX36aH-125" edge="1">
          <mxGeometry relative="1" as="geometry" />
        </mxCell>
        <mxCell id="boqBojfsuFh5zOHX36aH-131" value="" style="shape=table;startSize=0;container=1;collapsible=0;childLayout=tableLayout;fixedRows=1;rowLines=0;fontStyle=0;strokeColor=#9673a6;fontSize=16;fillColor=none;" parent="1" vertex="1">
          <mxGeometry x="1100" y="1199" width="509.5" height="131" as="geometry" />
        </mxCell>
        <mxCell id="boqBojfsuFh5zOHX36aH-132" value="" style="shape=tableRow;horizontal=0;startSize=0;swimlaneHead=0;swimlaneBody=0;top=0;left=0;bottom=0;right=0;collapsible=0;dropTarget=0;fillColor=none;points=[[0,0.5],[1,0.5]];portConstraint=eastwest;strokeColor=inherit;fontSize=16;" parent="boqBojfsuFh5zOHX36aH-131" vertex="1">
          <mxGeometry width="509.5" height="71" as="geometry" />
        </mxCell>
        <mxCell id="boqBojfsuFh5zOHX36aH-133" value="&lt;b&gt;mutex_unlock函数&lt;/b&gt;" style="shape=partialRectangle;html=1;whiteSpace=wrap;connectable=0;fillColor=none;top=0;left=0;bottom=0;right=0;overflow=hidden;pointerEvents=1;strokeColor=#82b366;fontSize=16;" parent="boqBojfsuFh5zOHX36aH-132" vertex="1">
          <mxGeometry width="150" height="71" as="geometry">
            <mxRectangle width="150" height="71" as="alternateBounds" />
          </mxGeometry>
        </mxCell>
        <mxCell id="boqBojfsuFh5zOHX36aH-134" value="&lt;div&gt;1. 快速释放路径：__mutex_unlock_fast&lt;br&gt;2. 慢速释放路径：__mutex_unlock_slowpath&lt;/div&gt;" style="shape=partialRectangle;html=1;whiteSpace=wrap;connectable=0;fillColor=none;top=0;left=0;bottom=0;right=0;align=left;spacingLeft=6;overflow=hidden;strokeColor=#82b366;fontSize=16;" parent="boqBojfsuFh5zOHX36aH-132" vertex="1">
          <mxGeometry x="150" width="360" height="71" as="geometry">
            <mxRectangle width="360" height="71" as="alternateBounds" />
          </mxGeometry>
        </mxCell>
        <mxCell id="boqBojfsuFh5zOHX36aH-135" value="" style="shape=tableRow;horizontal=0;startSize=0;swimlaneHead=0;swimlaneBody=0;top=0;left=0;bottom=0;right=0;collapsible=0;dropTarget=0;fillColor=none;points=[[0,0.5],[1,0.5]];portConstraint=eastwest;strokeColor=inherit;fontSize=16;" parent="boqBojfsuFh5zOHX36aH-131" vertex="1">
          <mxGeometry y="71" width="509.5" height="30" as="geometry" />
        </mxCell>
        <mxCell id="boqBojfsuFh5zOHX36aH-136" value="&lt;div style=&quot;text-align: left;&quot;&gt;&lt;b&gt;快速路径&lt;/b&gt;&lt;/div&gt;" style="shape=partialRectangle;html=1;whiteSpace=wrap;connectable=0;fillColor=none;top=0;left=0;bottom=0;right=0;overflow=hidden;pointerEvents=1;strokeColor=#d6b656;fontSize=16;" parent="boqBojfsuFh5zOHX36aH-135" vertex="1">
          <mxGeometry width="150" height="30" as="geometry">
            <mxRectangle width="150" height="30" as="alternateBounds" />
          </mxGeometry>
        </mxCell>
        <mxCell id="boqBojfsuFh5zOHX36aH-137" value="尝试将owner从当前任务设置为0" style="shape=partialRectangle;html=1;whiteSpace=wrap;connectable=0;fillColor=none;top=0;left=0;bottom=0;right=0;align=left;spacingLeft=6;overflow=hidden;strokeColor=#d6b656;fontSize=16;" parent="boqBojfsuFh5zOHX36aH-135" vertex="1">
          <mxGeometry x="150" width="360" height="30" as="geometry">
            <mxRectangle width="360" height="30" as="alternateBounds" />
          </mxGeometry>
        </mxCell>
        <mxCell id="boqBojfsuFh5zOHX36aH-138" value="" style="shape=tableRow;horizontal=0;startSize=0;swimlaneHead=0;swimlaneBody=0;top=0;left=0;bottom=0;right=0;collapsible=0;dropTarget=0;fillColor=none;points=[[0,0.5],[1,0.5]];portConstraint=eastwest;strokeColor=inherit;fontSize=16;" parent="boqBojfsuFh5zOHX36aH-131" vertex="1">
          <mxGeometry y="101" width="509.5" height="30" as="geometry" />
        </mxCell>
        <mxCell id="boqBojfsuFh5zOHX36aH-139" value="&lt;div style=&quot;text-align: left;&quot;&gt;&lt;b&gt;慢速路径&lt;/b&gt;&lt;/div&gt;" style="shape=partialRectangle;html=1;whiteSpace=wrap;connectable=0;fillColor=none;top=0;left=0;bottom=0;right=0;overflow=hidden;pointerEvents=1;strokeColor=#d6b656;fontSize=16;" parent="boqBojfsuFh5zOHX36aH-138" vertex="1">
          <mxGeometry width="150" height="30" as="geometry">
            <mxRectangle width="150" height="30" as="alternateBounds" />
          </mxGeometry>
        </mxCell>
        <mxCell id="boqBojfsuFh5zOHX36aH-140" value="快速释放失败（一般是有等待者）" style="shape=partialRectangle;html=1;whiteSpace=wrap;connectable=0;fillColor=none;top=0;left=0;bottom=0;right=0;align=left;spacingLeft=6;overflow=hidden;strokeColor=#d6b656;fontSize=16;" parent="boqBojfsuFh5zOHX36aH-138" vertex="1">
          <mxGeometry x="150" width="360" height="30" as="geometry">
            <mxRectangle width="360" height="30" as="alternateBounds" />
          </mxGeometry>
        </mxCell>
        <mxCell id="boqBojfsuFh5zOHX36aH-141" value="&lt;h1&gt;&lt;font style=&quot;font-size: 18px;&quot;&gt;锁释放和唤醒机制&lt;/font&gt;&lt;/h1&gt;" style="rounded=0;whiteSpace=wrap;html=1;fillColor=#e1d5e7;strokeColor=#9673a6;" parent="1" vertex="1">
          <mxGeometry x="1100" y="1170" width="510" height="29" as="geometry" />
        </mxCell>
        <mxCell id="DEj-dxudD83XBCTMd9A4-1" value="&lt;font style=&quot;font-size: 20px;&quot;&gt;🌻Make By Dakkk&lt;/font&gt;" style="html=1;shadow=0;dashed=0;shape=mxgraph.bootstrap.rrect;rSize=5;strokeColor=#1CA5B8;strokeWidth=1;fillColor=none;fontColor=#1CA5B8;whiteSpace=wrap;align=center;verticalAlign=middle;spacingLeft=0;fontStyle=1;fontSize=16;spacing=5;" vertex="1" parent="1">
          <mxGeometry x="270" y="922.0000000000001" width="111.67" height="70.39" as="geometry" />
        </mxCell>
        <mxCell id="DEj-dxudD83XBCTMd9A4-2" value="&lt;font style=&quot;font-size: 20px;&quot;&gt;🌻Make By Dakkk&lt;/font&gt;" style="html=1;shadow=0;dashed=0;shape=mxgraph.bootstrap.rrect;rSize=5;strokeColor=#1CA5B8;strokeWidth=1;fillColor=none;fontColor=#1CA5B8;whiteSpace=wrap;align=center;verticalAlign=middle;spacingLeft=0;fontStyle=1;fontSize=16;spacing=5;" vertex="1" parent="1">
          <mxGeometry x="1200" y="711.6100000000001" width="111.67" height="70.39" as="geometry" />
        </mxCell>
      </root>
    </mxGraphModel>
  </diagram>
</mxfile>
